<svg width="33" height="32" viewBox="0 0 33 32" fill="none" xmlns="http://www.w3.org/2000/svg">
<g id="Logo">
<g id="XMLID_17_">
<path id="XMLID_22_" d="M28.5 16C28.5 9.37188 23.1281 4 16.5 4C9.87188 4 4.5 9.37188 4.5 16C4.5 21.9902 8.88563 26.9547 14.6259 27.8552V19.4716H11.5814V16H14.6259V13.3567C14.6259 10.3516 16.4142 8.68844 19.1564 8.68844C20.4713 8.68844 21.8456 8.92516 21.8456 8.92516V11.8773H20.3334C18.8409 11.8773 18.3806 12.8045 18.3806 13.7514V16H21.7078L21.1753 19.4716H18.3806V27.8552C24.1144 26.9547 28.5 21.9902 28.5 16Z" fill="#1877F2"/>
<path id="XMLID_18_" d="M21.1683 19.4715L21.7013 16H18.3741V13.7514C18.3741 12.8045 18.8409 11.8773 20.3269 11.8773H21.8391V8.92513C21.8391 8.92513 20.4647 8.68842 19.1498 8.68842C16.4081 8.68842 14.6194 10.352 14.6194 13.3567V16H11.5748V19.4715H14.6194V27.8551C15.2311 27.9536 15.8555 28 16.4934 28C17.1314 28 17.7558 27.9475 18.3675 27.8551V19.4715H21.1683Z" fill="white"/>
</g>
</g>
</svg>
