<svg width="33" height="32" viewBox="0 0 33 32" fill="none" xmlns="http://www.w3.org/2000/svg">
<g id="Logo">
<g id="Group 427323113">
<path id="Vector" d="M28.5 16.2659C28.5 15.282 28.4183 14.5641 28.2415 13.8196H16.7449V18.2601H23.4931C23.3571 19.3637 22.6224 21.0256 20.9897 22.1423L20.9669 22.291L24.6019 25.0428L24.8537 25.0674C27.1666 22.98 28.5 19.9088 28.5 16.2659Z" fill="#4285F4"/>
<path id="Vector_2" d="M16.745 27.9656C20.051 27.9656 22.8265 26.9019 24.8538 25.0673L20.9898 22.1422C19.9558 22.8469 18.568 23.3388 16.745 23.3388C13.5069 23.3388 10.7586 21.2515 9.77892 18.3665L9.63532 18.3784L5.85558 21.2369L5.80615 21.3711C7.81974 25.2799 11.9558 27.9656 16.745 27.9656Z" fill="#34A853"/>
<path id="Vector_3" d="M9.77886 18.3666C9.52036 17.6221 9.37076 16.8243 9.37076 16.0001C9.37076 15.1757 9.52036 14.378 9.76526 13.6335L9.75841 13.475L5.93131 10.5706L5.80609 10.6288C4.9762 12.2508 4.5 14.0723 4.5 16.0001C4.5 17.9279 4.9762 19.7493 5.80609 21.3713L9.77886 18.3666Z" fill="#FBBC05"/>
<path id="Vector_4" d="M16.745 8.66089C19.0442 8.66089 20.5952 9.63144 21.4796 10.4425L24.9354 7.14527C22.813 5.21746 20.051 4.03418 16.745 4.03418C11.9558 4.03418 7.81974 6.7198 5.80615 10.6286L9.76532 13.6333C10.7586 10.7483 13.5069 8.66089 16.745 8.66089Z" fill="#EB4335"/>
</g>
</g>
</svg>
